<svg width="92" height="24" viewBox="0 0 92 24" fill="none" xmlns="http://www.w3.org/2000/svg">
<path d="M12.6503 22.453C11.2663 22.6876 9.85802 22.7579 8.4012 22.9453L3.95771 10.3829V23.4844C2.57375 23.625 1.31118 23.8125 0 24V0H3.69078L8.74108 13.6174V0H12.6503V22.453ZM20.2988 8.78907C21.8043 8.78907 24.1109 8.71873 25.4949 8.71873V12.4687C23.7709 12.4687 21.7557 12.4687 20.2988 12.539V18.1172C22.5812 17.9766 24.8636 17.789 27.1702 17.7186V21.3278L16.4137 22.1483V0H27.1702V3.75001H20.2988V8.78907ZM41.6172 3.75009H37.5867V21.0001C36.2755 21.0001 34.9643 21.0001 33.7019 21.0468V3.75009H29.6714V0H41.6174L41.6172 3.75009ZM47.9302 8.53133H53.2478V12.2812H47.9302V20.7892H44.1179V0H54.9717V3.75001H47.9302V8.53133ZM61.2847 17.5078C63.4943 17.5545 65.728 17.7189 67.8891 17.8359V21.5391C64.417 21.328 60.9448 21.1173 57.3998 21.0468V0H61.2847V17.5078ZM71.1669 21.7969C72.4053 21.8673 73.7164 21.9376 74.979 22.078V0H71.1669V21.7969ZM92 0L87.0709 11.4141L92 24C90.543 23.8125 89.0862 23.5547 87.6293 23.3203L84.8371 16.3829L81.9965 22.7579C80.588 22.5234 79.2283 22.453 77.8202 22.2655L82.822 11.2733L78.3057 0H82.4818L85.0313 6.3047L87.7508 0H92Z" fill="#D81F26"/>
</svg>
