<svg width="25" height="18" viewBox="0 0 25 18" fill="none" xmlns="http://www.w3.org/2000/svg">
<path fill-rule="evenodd" clip-rule="evenodd" d="M14.1059 8.06054C14.1059 11.3993 11.3993 14.1059 8.06054 14.1059C4.72175 14.1059 2.01514 11.3993 2.01514 8.06054C2.01514 4.72175 4.72175 2.01514 8.06054 2.01514C11.3993 2.01514 14.1059 4.72175 14.1059 8.06054ZM14.471 12.9478C12.9982 14.8766 10.6747 16.1211 8.06054 16.1211C3.60882 16.1211 0 12.5123 0 8.06054C0 3.60882 3.60882 0 8.06054 0C12.5123 0 16.1211 3.60882 16.1211 8.06054C16.1211 9.17652 15.8943 10.2395 15.4843 11.206L24.1838 16.2573L23.1719 18L14.471 12.9478Z" fill="white"/>
</svg>
