<svg width="24" height="24" viewBox="0 0 24 24" fill="none" xmlns="http://www.w3.org/2000/svg">
<path fill-rule="evenodd" clip-rule="evenodd" d="M12 2.18182C6.57757 2.18182 2.18182 6.57757 2.18182 12C2.18182 17.4225 6.57757 21.8182 12 21.8182C17.4225 21.8182 21.8182 17.4225 21.8182 12C21.8182 6.57757 17.4225 2.18182 12 2.18182ZM0 12C0 5.37259 5.37259 0 12 0C18.6274 0 24 5.37259 24 12C24 18.6274 18.6274 24 12 24C5.37259 24 0 18.6274 0 12ZM13.0909 9.81818V18.5455H10.9091V9.81818H13.0909ZM12 8.18182C12.9037 8.18182 13.6364 7.4492 13.6364 6.54545C13.6364 5.64171 12.9037 4.90909 12 4.90909C11.0963 4.90909 10.3636 5.64171 10.3636 6.54545C10.3636 7.4492 11.0963 8.18182 12 8.18182Z" fill="white"/>
</svg>
