<svg width="27" height="27" viewBox="0 0 27 27" fill="none" xmlns="http://www.w3.org/2000/svg">
<path d="M27 13.5C27 20.956 20.956 27 13.5 27C6.04395 27 0 20.956 0 13.5C0 6.04395 6.04395 0 13.5 0C20.956 0 27 6.04395 27 13.5ZM24.3 13.5C24.3 10.6357 23.1621 7.88863 21.1367 5.86324C19.1113 3.83785 16.3643 2.7 13.5 2.7C10.6357 2.7 7.88863 3.83785 5.86324 5.86324C3.83785 7.88863 2.7 10.6357 2.7 13.5C2.7 16.3643 3.83785 19.1113 5.86324 21.1367C7.88863 23.1621 10.6357 24.3 13.5 24.3C16.3643 24.3 19.1113 23.1621 21.1367 21.1367C23.1621 19.1113 24.3 16.3643 24.3 13.5ZM12.15 21.6V12.15H14.85V21.6H12.15ZM13.5 9.78749C13.2797 9.78965 13.0613 9.74723 12.8578 9.66278C12.6543 9.57833 12.4701 9.4536 12.316 9.29609C12.1534 9.14281 12.0246 8.95723 11.9379 8.75125C11.8512 8.54527 11.8085 8.32344 11.8125 8.09999C11.8125 7.63019 11.9785 7.23059 12.3147 6.90389C12.6481 6.57719 13.0437 6.4125 13.5 6.4125C13.9549 6.4125 14.3505 6.57719 14.6839 6.90389C15.0187 7.23059 15.1875 7.63019 15.1875 8.09999C15.1875 8.56979 15.0201 8.96939 14.6839 9.29609C14.5299 9.4536 14.3456 9.57833 14.1422 9.66278C13.9387 9.74723 13.7203 9.78965 13.5 9.78749Z" fill="white"/>
</svg>
