<svg width="7" height="8" viewBox="0 0 7 8" fill="none" xmlns="http://www.w3.org/2000/svg">
<path d="M0 8V0H3.31035C3.9694 0 4.5365 0.114943 5.0115 0.344828C5.48664 0.574713 5.85058 0.896552 6.10345 1.31035C6.35633 1.72414 6.48276 2.2069 6.48276 2.75862C6.48276 3.31035 6.35633 3.79694 6.10345 4.21839C5.85058 4.63219 5.48664 4.95403 5.0115 5.18391C4.5365 5.4138 3.9694 5.52874 3.31035 5.52874H1.87356V8H0ZM1.87356 3.94253H3.03449C3.57859 3.94253 3.97328 3.84292 4.21839 3.64368C4.46365 3.43678 4.58621 3.14177 4.58621 2.75862C4.58621 2.38315 4.46365 2.09579 4.21839 1.89655C3.97328 1.68966 3.57859 1.58621 3.03449 1.58621H1.87356V3.94253Z" fill="white"/>
</svg>
