<svg width="11" height="14" viewBox="0 0 11 14" fill="none" xmlns="http://www.w3.org/2000/svg">
<path d="M5.38016 14C4.30027 14 3.35537 13.7172 2.54545 13.1515C1.73554 12.573 1.10565 11.7631 0.655647 10.7218C0.218595 9.66763 0 8.427 0 7C0 5.573 0.218595 4.33884 0.655647 3.29752C1.10565 2.24339 1.73554 1.43347 2.54545 0.867769C3.35537 0.289256 4.30027 0 5.38016 0C6.47286 0 7.41777 0.289256 8.21487 0.867769C9.02479 1.43347 9.64834 2.24339 10.0854 3.29752C10.5354 4.33884 10.7603 5.573 10.7603 7C10.7603 8.427 10.5354 9.66763 10.0854 10.7218C9.64834 11.7631 9.02479 12.573 8.21487 13.1515C7.41777 13.7172 6.47286 14 5.38016 14ZM5.38016 11.7245C6.22865 11.7245 6.90358 11.3067 7.40496 10.4711C7.91914 9.6354 8.17631 8.47837 8.17631 7C8.17631 5.52163 7.91914 4.3646 7.40496 3.52893C6.90358 2.69325 6.22865 2.27548 5.38016 2.27548C4.53168 2.27548 3.85027 2.69325 3.33609 3.52893C2.83471 4.3646 2.58402 5.52163 2.58402 7C2.58402 8.47837 2.83471 9.6354 3.33609 10.4711C3.85027 11.3067 4.53168 11.7245 5.38016 11.7245Z" fill="white"/>
</svg>
