<svg width="8" height="8" viewBox="0 0 8 8" fill="none" xmlns="http://www.w3.org/2000/svg">
<path d="M3.92302 8C3.35159 8 2.82412 7.9011 2.3406 7.7033C1.86446 7.50549 1.45055 7.22711 1.0989 6.86813C0.754573 6.50916 0.483515 6.08791 0.285713 5.60439C0.0952324 5.11356 0 4.57876 0 4C0 3.42125 0.0952324 2.89011 0.285713 2.40659C0.483515 1.91575 0.754573 1.49085 1.0989 1.13187C1.45055 0.772898 1.86446 0.494505 2.3406 0.296703C2.82412 0.0989009 3.35159 0 3.92302 0C4.50187 0 5.02934 0.0989009 5.50544 0.296703C5.98895 0.494505 6.40654 0.772898 6.75818 1.13187C7.10983 1.49085 7.38099 1.91575 7.57137 2.40659C7.76917 2.89011 7.86807 3.42125 7.86807 4C7.86807 4.57876 7.76917 5.11356 7.57137 5.60439C7.38099 6.08791 7.10983 6.50916 6.75818 6.86813C6.40654 7.22711 5.98895 7.50549 5.50544 7.7033C5.02934 7.9011 4.50187 8 3.92302 8ZM3.92302 6.41758C4.3406 6.41758 4.71066 6.31868 5.03291 6.12088C5.3553 5.91575 5.60434 5.63004 5.78016 5.26373C5.9634 4.89744 6.05489 4.47619 6.05489 4C6.05489 3.51648 5.9634 3.09525 5.78016 2.73626C5.60434 2.36997 5.3553 2.08791 5.03291 1.89011C4.71066 1.68499 4.3406 1.58242 3.92302 1.58242C3.51286 1.58242 3.14651 1.68499 2.82412 1.89011C2.50915 2.08791 2.26011 2.36997 2.07687 2.73626C1.9011 3.09525 1.81319 3.51648 1.81319 4C1.81319 4.47619 1.9011 4.89744 2.07687 5.26373C2.26011 5.63004 2.50915 5.91575 2.82412 6.12088C3.14651 6.31868 3.51286 6.41758 3.92302 6.41758Z" fill="white"/>
</svg>
