<svg width="21" height="20" viewBox="0 0 21 20" fill="none" xmlns="http://www.w3.org/2000/svg">
<path fill-rule="evenodd" clip-rule="evenodd" d="M11.1074 2.07092C14.4996 2.55624 17.1072 5.4736 17.1072 9V13.2538C18.156 13.3307 19.1922 13.4245 20.2144 13.5347L20 15.5232C16.8293 15.1813 13.5164 15 10.1072 15C6.69798 15 3.38506 15.1813 0.21441 15.5232L0 13.5347C1.02215 13.4245 2.05837 13.3307 3.1072 13.2538V9C3.1072 5.47345 5.71502 2.55599 9.10742 2.07086V0H11.1074V2.07092ZM15.1072 13.1287V9C15.1072 6.23858 12.8686 4 10.1072 4C7.34578 4 5.1072 6.23858 5.1072 9V13.1287C6.74783 13.0437 8.41632 13 10.1072 13C11.7981 13 13.4665 13.0437 15.1072 13.1287ZM6.7331 17.3712C6.76952 18.5173 8.25832 20 10.1067 20C11.9551 20 13.4439 18.5173 13.4804 17.3712C13.4874 17.1489 13.283 17 13.0605 17H7.15297C6.9305 17 6.72604 17.1489 6.7331 17.3712Z" fill="white"/>
</svg>
